<svg width="500" height="280" viewBox="0 0 500 280" fill="none" xmlns="http://www.w3.org/2000/svg">
<rect width="500" height="280" fill="#F2F4F5"/>
<path fill-rule="evenodd" clip-rule="evenodd" d="M276.258 126.523C275.698 124.281 273.956 122.537 271.655 122.102C257.286 119.299 242.916 119.299 228.547 122.102C226.37 122.537 224.628 124.219 224.006 126.336C221.331 135.676 221.331 145.141 224.006 154.544C224.628 156.723 226.432 158.467 228.672 158.84C242.916 161.331 257.161 161.331 271.344 158.903C273.708 158.467 275.636 156.786 276.196 154.419C278.56 145.141 278.622 135.801 276.258 126.523ZM237.816 148.441C238.811 145.888 240.491 143.397 242.854 140.844C243.228 140.408 243.912 140.408 244.285 140.844C245.405 142.089 246.4 143.335 247.271 144.58C248.764 141.903 250.692 139.287 253.118 136.61C253.678 135.987 254.673 135.987 255.233 136.61C258.716 140.346 261.142 144.082 262.635 147.756C263.009 148.69 262.324 149.749 261.267 149.749H248.391H247.022H238.687C238.002 149.811 237.505 149.126 237.816 148.441ZM241.175 130.507C239.122 130.507 237.505 132.126 237.505 134.181C237.505 136.236 239.122 137.855 241.175 137.855C243.227 137.855 244.845 136.236 244.845 134.181C244.845 132.126 243.227 130.507 241.175 130.507Z" fill="white"/>
</svg>
