<?xml version="1.0" encoding="utf-8"?>
<!-- Generator: Adobe Illustrator 25.0.1, SVG Export Plug-In . SVG Version: 6.00 Build 0)  -->
<svg version="1.1" id="Layer_1" xmlns="http://www.w3.org/2000/svg" xmlns:xlink="http://www.w3.org/1999/xlink" x="0px" y="0px"
	 viewBox="0 0 720 720" style="enable-background:new 0 0 720 720;" xml:space="preserve">
<style type="text/css">
	.st0{fill-rule:evenodd;clip-rule:evenodd;fill:#60AAA8;}
	.st1{fill:#60AAA8;}
</style>
<g>
	<g>
		<polygon class="st0" points="248.6,277.9 472.2,277.9 360.4,342.3 		"/>
		<polygon class="st0" points="226.6,314.2 338.3,378.8 338.4,507.9 		"/>
		<polygon class="st0" points="381,379.7 492.7,315 380.9,508.7 		"/>
	</g>
	<g>
		<path class="st1" d="M97.8,356.1l-26.1-0.6l0.2-6.1l26.1,0.6L97.8,356.1z"/>
		<path class="st1" d="M75.1,313.7l25.9,3l-0.5,4.6L83.2,333l15.6,1.8l-0.7,6.1l-25.9-3l0.5-4.6L90,321.6l-15.6-1.8L75.1,313.7z"/>
		<path class="st1" d="M99.9,289l4.6-2.8c1.8,3,2.5,6.7,1.6,10.5c-1.8,7.7-9.3,12.1-16.7,10.3s-12-9.1-10.2-16.8
			c0.9-3.8,3.2-6.8,6.1-8.6l2.8,4.6c-1.6,1.1-2.8,2.7-3.4,5c-1.2,4.9,1.8,9,6,10s8.7-1.3,9.8-6.2C101.2,292.7,100.9,290.7,99.9,289z
			"/>
		<path class="st1" d="M110.9,260.4l5.3,1.9l-6.3,17.9l-24.6-8.7l2-5.8l19.2,6.8L110.9,260.4z"/>
		<path class="st1" d="M105.8,222.9l12.5,6.1c6.9,3.3,9.6,9.9,6.1,17c-3.4,7.1-10.3,9-17.1,5.7l-12.5-6.1l2.7-5.5l12.8,6.2
			c3.2,1.5,7.2,1.2,9.1-2.8s-0.3-7.4-3.5-8.9l-12.8-6.2L105.8,222.9z"/>
		<path class="st1" d="M138.4,205.6c4.9,3.1,3.9,8.7,0.7,13.7c-2.2,3.4-5.1,6.3-8.6,8.3l-3.1-4.8c2.7-1.7,5.4-4.1,7-6.6
			c2-3.2,1.4-4.7,0.5-5.2c-3.9-2.5-10.2,12.2-18.5,6.9c-4-2.5-3.7-7.8-0.2-13.3c1.9-3.1,4.5-5.7,7.6-7.5l3,4.5
			c-2.5,1.6-4.7,3.9-6,5.9c-1.3,2-2.2,4.1-0.7,5.1C123.4,214.7,130.6,200.6,138.4,205.6z"/>
		<path class="st1" d="M149.7,203.1L129,187.2l3.7-4.9l20.7,15.8L149.7,203.1z"/>
		<path class="st1" d="M166.9,163c5.6,5.2,6.1,13.8,0.7,19.6c-5.4,5.8-14,6-19.6,0.9c-5.6-5.2-6.1-13.8-0.7-19.6
			S161.3,157.8,166.9,163z M162.8,167.4c-3.1-2.9-8.2-3.1-11.3,0.3c-3.1,3.4-2.5,8.4,0.6,11.3c3.1,2.9,8.2,3.1,11.3-0.3
			S165.9,170.3,162.8,167.4z"/>
		<path class="st1" d="M183.2,131.7l16.8,19.9l-3.6,3l-20.5-3.3l10.2,12l-4.7,3.9l-16.8-19.9l3.6-3l20.5,3.2l-10.1-12L183.2,131.7z"
			/>
		<path class="st1" d="M220.1,122.7c1.5,2.4,0.8,5.6-1.7,7.2c-2.6,1.6-5.7,0.8-7.2-1.7s-0.8-5.6,1.8-7.2
			C215.5,119.4,218.6,120.3,220.1,122.7z"/>
		<path class="st1" d="M243.6,101.9l1.9,4.4l11.7-5.1l2.2,5l-11.7,5.1l1.9,4.5l14.2-6.2l2.2,5l-19.8,8.6l-10.4-23.9l19.8-8.6l2.2,5
			L243.6,101.9z"/>
		<path class="st1" d="M301.7,103.7l-5.9,1.7l-4.2-14.9l-3.7,11.4l-3.8,1.1l-9.1-7.7l4.3,14.9l-5.9,1.7l-7.2-25.1l5.3-1.5l12.6,10.7
			l5-15.7l5.3-1.5L301.7,103.7z"/>
		<path class="st1" d="M330.8,82.6c0.8,5.3-2.2,10.2-9.1,11.2l-6.5,1l1,6.5l-6,0.9l-3.9-25.8l12.5-1.9
			C325.7,73.5,330,77.3,330.8,82.6z M324.7,83.5c-0.3-2.3-2.4-3.9-5.1-3.5l-6.5,1l1.2,8.3l6.5-1C323.5,87.9,325.1,85.8,324.7,83.5z"
			/>
		<path class="st1" d="M363.6,97.4l-6.1,0.2l-2.4-5.3l-11.8,0.4l-2,5.5l-6.1,0.2l9.5-26.4l7.5-0.3L363.6,97.4z M352.9,87.1l-4.1-9.3
			l-3.4,9.6L352.9,87.1z"/>
		<path class="st1" d="M390.9,73.1l-0.4,5.7l-8.8-0.6l-1.4,20.4l-6.1-0.4l1.4-20.4l-8.8-0.6l0.4-5.7L390.9,73.1z"/>
		<path class="st1" d="M424.9,78.8l-4.8,25.6l-6-1.1l1.9-10L403.8,91l-1.9,10l-6-1.1l4.8-25.6l6,1.1l-1.9,10l12.1,2.3l1.9-10
			L424.9,78.8z"/>
		<path class="st1" d="M459.8,89.2l-14.9,11.8l-3.1,9.9l-5.8-1.8l3.1-9.9l-5.4-18.2l6.5,2.1l3.5,11.8l9.6-7.6L459.8,89.2z"/>
		<path class="st1" d="M484.5,114.6c-1.3,2.6-4.3,3.7-7,2.4s-3.7-4.4-2.5-7c1.3-2.6,4.3-3.7,7-2.4S485.8,112,484.5,114.6z"/>
		<path class="st1" d="M530.6,127.6l-3.2,4.7l-7.3-4.9l-11.4,16.9l-5.1-3.4l11.4-16.9l-7.3-4.9l3.2-4.7L530.6,127.6z"/>
		<path class="st1" d="M539.6,141.8l-3.2,3.7l9.7,8.2l-3.5,4.1l-9.7-8.2l-3.2,3.7l11.8,10.1l-3.5,4.1l-16.5-14l16.9-19.8l16.5,14
			l-3.5,4.1L539.6,141.8z"/>
		<path class="st1" d="M561,181.1l-0.2,5.4c-3.5-0.1-6.9-1.6-9.6-4.5c-5.5-5.8-5-14.4,0.5-19.6s14.2-5.1,19.6,0.7
			c2.7,2.9,4,6.4,3.9,9.9l-5.4-0.1c0-1.9-0.7-3.9-2.3-5.6c-3.5-3.7-8.5-3.4-11.6-0.5c-3.1,2.9-3.7,7.9-0.2,11.6
			C557.2,180.1,559.1,180.9,561,181.1z"/>
		<path class="st1" d="M598.6,198.4l-21,15.5l-3.6-4.9l8.2-6.1l-7.3-9.9l-8.2,6.1l-3.6-4.9l21-15.5l3.6,4.9l-8.2,6l7.3,9.9l8.2-6
			L598.6,198.4z"/>
		<path class="st1" d="M617,229.6l-22.7,12.8l-2.3-4.1l7.1-19.5l-13.7,7.7l-3-5.3l22.7-12.8l2.3,4.1l-7,19.5l13.7-7.7L617,229.6z"/>
		<path class="st1" d="M619.9,269.2c-7,2.9-15.1-0.4-18.1-7.7c-3-7.4,0.5-15.3,7.6-18.1s15,0.4,18,7.7
			C630.4,258.4,626.9,266.3,619.9,269.2z M617.6,263.5c3.9-1.6,6.3-6.1,4.6-10.3c-1.7-4.2-6.5-5.8-10.5-4.2
			c-3.9,1.6-6.3,6.1-4.6,10.3C608.8,263.6,613.6,265.1,617.6,263.5z"/>
		<path class="st1" d="M620.2,297.3l-5.5,1.5l-5.1-18.2l25.1-7l1.7,5.9l-19.6,5.5L620.2,297.3z"/>
		<path class="st1" d="M633.2,327.6c-7.5,1.3-14.6-3.6-16-11.5c-1.3-7.8,3.8-14.8,11.3-16c7.5-1.3,14.6,3.6,15.9,11.5
			S640.7,326.3,633.2,327.6z M632.2,321.6c4.2-0.7,7.5-4.6,6.7-9.1s-5.1-7.1-9.3-6.4c-4.2,0.7-7.5,4.6-6.7,9.1
			C623.7,319.7,628,322.3,632.2,321.6z"/>
		<path class="st1" d="M635.5,362c-8,0.3-14.5-5.1-14.8-13c-0.3-7.9,5.7-14.2,13.2-14.5s14,5.4,14.4,13.4c0.2,5-2,9.3-5.6,11.9
			l-3.1-4.6c2-1.5,3.2-3.8,3.1-6.8c-0.2-4.9-4.2-8-8.5-7.8s-8,3.5-7.8,8.5c0.2,3.6,2.3,5.9,5,6.8l-0.2-6.1l5.2-0.2l0.5,12.5
			C636.5,361.9,636,362,635.5,362z"/>
		<path class="st1" d="M645.9,394.3L631,382.6l-10.3-0.8l0.4-6.1l10.3,0.8l16.4-9.4l-0.5,6.8l-10.7,6.1l9.7,7.6L645.9,394.3z"/>
		<path class="st1" d="M627,424.3c-2.8-0.6-4.6-3.3-4-6.3c0.7-3,3.4-4.7,6.2-4c2.8,0.6,4.6,3.4,4,6.3
			C632.6,423.2,629.8,424.9,627,424.3z"/>
		<path class="st1" d="M608.7,461.9l-4.9,2.2c-1.4-3.2-1.6-6.9-0.2-10.6c2.8-7.4,10.8-10.9,17.9-8.2s10.8,10.5,8,17.9
			c-1.4,3.7-4,6.4-7.2,7.8l-2.2-4.9c1.7-0.9,3.2-2.4,4-4.5c1.8-4.7-0.7-9.1-4.7-10.6s-8.8,0.2-10.5,4.9
			C607.9,458.1,608,460.1,608.7,461.9z"/>
		<path class="st1" d="M586.4,491.6l3.3-6.4l9.9-1.6l2.5-4.9l-7.2-3.7l2.8-5.4l23.2,12l-6.3,12.2c-2.7,5.2-8.1,6.8-12.5,4.5
			c-3.2-1.6-5-4.8-4.8-8.4L586.4,491.6z M605,492.7c1.7,0.9,3.6,0.4,4.9-2l3.2-6.3l-6-3.1l-3.2,6.3C602.6,490,603.3,491.9,605,492.7
			z"/>
		<path class="st1" d="M596.7,513.5l-4-2.7l-7.1,10.6l-4.5-3l7.1-10.6l-4-2.7l-8.7,12.9l-4.5-3l12.1-18l21.6,14.6l-12.1,18l-4.5-3
			L596.7,513.5z"/>
		<path class="st1" d="M549.6,540.5l4-4.6l5.5,1.9l7.7-9l-2.7-5.2l4-4.7l13,24.9l-4.8,5.7L549.6,540.5z M564.5,539.6l9.6,3.3l-4.7-9
			L564.5,539.6z"/>
		<path class="st1" d="M549,577l-3.9-4.1l6.4-6l-14-14.8l4.4-4.2l14,14.8l6.4-6l3.9,4.1L549,577z"/>
		<path class="st1" d="M525.2,562.6l16.3,20.4l-4.8,3.8l-16.2-20.4L525.2,562.6z"/>
		<path class="st1" d="M506.9,576.3l23.1,16l-5.2,3.4l-16.7-11.5l4.1,19.9l-5.1,3.4l-5.7-27.5L506.9,576.3z"/>
		<path class="st1" d="M487,588.6l12.4,22.9l-5.4,2.9l-12.4-22.9L487,588.6z"/>
		<path class="st1" d="M463.9,628.4l-2.3-5.2l8-3.5l-8.2-18.7l5.6-2.5l8.2,18.7l8-3.5l2.3,5.2L463.9,628.4z"/>
		<path class="st1" d="M431.5,638.9l5.5-18.1l-3-9.9l5.9-1.8l3,9.9l14.8,11.9l-6.5,2l-9.6-7.7l-3.6,11.8L431.5,638.9z"/>
		<path class="st1" d="M396.7,632.1c-0.4-2.8,1.4-5.5,4.4-6s5.6,1.5,6,4.3c0.4,2.8-1.5,5.5-4.4,6S397.1,634.9,396.7,632.1z"/>
		<path class="st1" d="M355,628.7l-3.9-3.8c2.5-2.5,5.9-4,9.8-4.1c7.9-0.1,14,6,14.2,13.6c0.1,7.6-5.8,13.9-13.7,14
			c-3.9,0.1-7.4-1.4-9.9-3.8l3.7-3.9c1.4,1.3,3.4,2.1,5.7,2c5-0.1,8.2-4,8.1-8.3s-3.4-8.1-8.4-8C358.3,626.6,356.4,627.4,355,628.7z
			"/>
		<path class="st1" d="M316.9,631.7c0.8-7.6,7.4-13.1,15.3-12.3s13.2,7.6,12.4,15.2s-7.4,13.1-15.3,12.3
			C321.4,646.1,316.1,639.3,316.9,631.7z M322.9,632.3c-0.4,4.2,2.4,8.4,7,8.9s8.2-3,8.7-7.3c0.4-4.2-2.4-8.4-7-8.9
			S323.3,628.1,322.9,632.3z"/>
		<path class="st1" d="M291.9,618.8l1.2-5.5l18.5,4l-5.6,25.5l-6-1.3l4.4-19.9L291.9,618.8z"/>
		<path class="st1" d="M267.1,611l1.8-5.4l18,5.8l-8,24.8l-5.8-1.9l6.3-19.4L267.1,611z"/>
		<path class="st1" d="M239.7,592.9l5.6,2.5l-0.2,5.8l10.8,4.8l4.2-4l5.6,2.5L245.3,624l-6.8-3L239.7,592.9z M244.8,606.9l-0.4,10.2
			l7.3-7L244.8,606.9z"/>
		<path class="st1" d="M210.3,584.2c2.1-3.5,6.5-4.8,11-2.1l13.4,8l-13.4,22.4l-12.8-7.7c-4.1-2.5-5.2-6.8-3.1-10.2
			c1.4-2.3,4.1-2.9,5.3-2.9C209.8,590.4,208.5,587.2,210.3,584.2z M221.2,600.7l-6.4-3.8c-1.7-1-3.1-0.6-3.8,0.6
			c-0.7,1.2-0.4,2.7,1.2,3.7l6.4,3.8L221.2,600.7z M215.4,587.9c-0.8,1.3-0.5,3,1.4,4.2l7.1,4.2l2.9-4.9l-7.1-4.2
			C217.9,586,216.3,586.5,215.4,587.9z"/>
		<path class="st1" d="M179.7,568.1c4.7-6,13.2-7.2,19.5-2.3c6.3,4.9,7.2,13.5,2.5,19.5s-13.2,7.2-19.5,2.3
			C176,582.7,175,574.1,179.7,568.1z M184.5,571.8c-2.6,3.3-2.4,8.4,1.2,11.2c3.6,2.8,8.6,1.8,11.2-1.6s2.4-8.4-1.2-11.2
			C192.1,567.4,187.1,568.5,184.5,571.8z"/>
		<path class="st1" d="M165.2,535.6l5.1,5l-1.4,10l3.9,3.9l5.7-5.7l4.3,4.3l-18.4,18.5l-9.7-9.7c-4.1-4.1-4-9.7-0.5-13.2
			c2.5-2.5,6.1-3.3,9.5-2L165.2,535.6z M158.6,553c-1.3,1.3-1.5,3.3,0.5,5.2l5,5l4.8-4.8l-5-5C161.8,551.6,159.9,551.7,158.6,553z"
			/>
		<path class="st1" d="M145.4,510.9l3.8,4.8l-2.9,5l7.3,9.2l5.6-1.7l3.8,4.8l-26.9,8l-4.6-5.8L145.4,510.9z M143.4,525.7l-5.1,8.8
			l9.8-2.9L143.4,525.7z"/>
		<path class="st1" d="M109.7,503.3l4.8-3l4.7,7.4l17.3-10.9l3.3,5.2l-17.3,10.9l4.7,7.4l-4.8,3L109.7,503.3z"/>
		<path class="st1" d="M128.4,482.7l-23.2,12l-2.8-5.4l23.1-12L128.4,482.7z"/>
		<path class="st1" d="M99.5,450c7.1-2.9,15.1,0.4,18.1,7.7c3,7.4-0.5,15.3-7.6,18.1s-15-0.4-18-7.7S92.4,452.9,99.5,450z
			 M101.8,455.7c-3.9,1.6-6.3,6.1-4.6,10.4c1.7,4.2,6.6,5.8,10.5,4.2c3.9-1.6,6.3-6.1,4.6-10.4C110.5,455.7,105.7,454.1,101.8,455.7
			z"/>
		<path class="st1" d="M78.2,422l25.2-6.7l1.2,4.5l-11.7,17.1l15.2-4l1.6,5.9l-25.2,6.7l-1.2-4.5L95,423.8l-15.2,4L78.2,422z"/>
		<path class="st1" d="M85.6,381.7c2.9-0.3,5.4,1.7,5.7,4.7s-1.8,5.5-4.7,5.8s-5.4-1.8-5.7-4.8C80.6,384.4,82.8,382,85.6,381.7z"/>
	</g>
</g>
</svg>
